<svg version="1.1" id="logo" xmlns="http://www.w3.org/2000/svg" xmlns:xlink="http://www.w3.org/1999/xlink" x="0px" y="0px"
	 width="100%" viewBox="0 0 832 736" enable-background="new 0 0 832 736" xml:space="preserve">
<path fill="currentColor" opacity="1.000000" stroke="none" 
	d="
M728.308594,439.277405 
	C717.821899,444.841431 717.059204,452.212982 726.167053,459.060974 
	C730.010803,461.951050 734.289856,464.268799 738.410217,466.782379 
	C742.063049,469.010712 743.683777,471.738434 742.587708,476.339478 
	C738.799744,492.239685 740.116089,489.827484 726.460571,491.861725 
	C723.501892,492.302490 720.510071,492.759125 717.655823,493.616028 
	C710.279358,495.830505 707.943909,502.321808 711.888855,509.020782 
	C714.528076,513.502625 718.950378,516.017090 722.860413,519.087891 
	C729.880066,524.600830 729.926331,524.691467 726.068726,535.808777 
	C723.513184,543.173584 721.943909,544.208740 714.042236,544.280457 
	C709.064941,544.325623 704.035522,543.588745 699.125671,545.002991 
	C692.565796,546.892517 690.220459,550.949463 691.888794,557.476624 
	C692.094971,558.283508 692.307129,559.091431 692.570312,559.880920 
	C695.596619,568.956360 695.599548,568.971863 686.201050,569.039734 
	C675.868408,569.114258 665.535339,569.142151 655.202698,569.220398 
	C653.234497,569.235352 651.202759,569.099548 649.219971,570.511536 
	C650.252930,572.916199 652.329773,572.692566 654.183289,572.713135 
	C660.515930,572.783386 666.851501,572.883240 673.181641,572.756226 
	C676.764771,572.684326 679.370361,574.187561 682.155945,576.318909 
	C691.469421,583.444946 695.482117,592.160461 694.625427,604.271301 
	C693.560608,619.325012 694.370056,634.511230 694.370056,649.640259 
	C694.908142,649.639221 695.446289,649.638184 695.984375,649.637146 
	C695.984375,634.651611 695.910583,619.665527 696.011475,604.680664 
	C696.074219,595.355835 696.489380,586.033447 696.556824,576.708618 
	C696.577576,573.845947 697.779724,572.834595 700.433228,572.834229 
	C715.099365,572.832153 729.765442,572.799988 744.431580,572.764709 
	C746.370239,572.760010 748.001221,573.459351 749.415405,574.738892 
	C749.909546,575.185974 750.399902,575.637451 750.884155,576.095154 
	C762.841125,587.395630 762.858093,587.395752 762.940186,603.971924 
	C763.001282,616.304749 762.643799,628.653748 763.181335,640.964661 
	C763.500916,648.285522 762.129822,654.403076 756.338867,659.179443 
	C753.616577,661.424805 753.264160,664.061890 753.978821,667.625000 
	C757.574402,685.553772 760.806763,703.555603 764.133362,721.537964 
	C765.282410,727.749329 764.882263,728.229065 758.780518,728.255676 
	C752.947510,728.281067 747.109985,728.111877 741.282593,728.291626 
	C737.755737,728.400330 736.229187,726.938965 735.631653,723.527527 
	C733.766357,712.879028 731.709656,702.263184 729.632202,691.653320 
	C729.202942,689.460693 729.138977,687.066040 726.871826,684.322937 
	C725.425415,690.289062 725.844971,695.550659 725.618103,700.688416 
	C725.294800,708.006958 725.272339,715.350647 725.458923,722.675110 
	C725.560608,726.669312 724.373291,728.474976 720.108276,728.291321 
	C714.119507,728.033386 708.105530,728.065918 702.113464,728.282532 
	C698.013062,728.430908 696.579407,726.894287 696.613281,722.755188 
	C696.772766,703.297058 696.684265,683.836914 695.905701,664.374695 
	C695.789307,678.711304 693.892395,692.980652 694.277283,707.304260 
	C694.373657,710.889893 692.891113,713.343262 690.935303,716.246765 
	C683.880310,726.720520 674.302551,730.204529 662.221497,728.287170 
	C660.596069,728.029175 658.845459,727.995422 657.234985,728.296753 
	C645.630920,730.468506 637.106506,725.859009 630.148560,716.821899 
	C627.998047,714.028809 626.616455,711.532959 626.627563,707.923157 
	C626.730347,674.590881 626.689331,641.258118 626.681580,607.925537 
	C626.679932,600.773987 620.747253,597.235657 614.250793,600.487061 
	C611.726135,601.750610 612.281494,604.139282 612.275574,606.212769 
	C612.220947,625.378906 612.223083,644.545166 612.217590,663.711426 
	C612.212036,683.210938 612.105103,702.711548 612.298828,722.209167 
	C612.344116,726.763123 610.901123,728.514893 606.284424,728.289307 
	C600.299011,727.996765 594.283691,728.078857 588.290039,728.272644 
	C584.205505,728.404724 582.667358,726.787476 582.699341,722.693787 
	C582.817871,707.528625 582.697021,692.361633 582.691895,677.195374 
	C582.683960,653.695923 582.720032,630.196472 582.664062,606.697144 
	C582.658875,604.507202 583.618286,601.336487 580.682495,600.624023 
	C576.743713,599.668152 572.444824,598.247742 568.575012,600.795227 
	C566.467468,602.182617 567.279236,604.778259 567.276184,606.866821 
	C567.221619,644.199280 567.216187,681.531799 567.201965,718.864319 
	C567.198425,728.188171 567.201477,728.192383 558.031738,728.214600 
	C553.198547,728.226318 548.351746,727.997070 543.536316,728.290894 
	C539.427673,728.541565 537.546936,726.967163 536.708618,722.944946 
	C534.333374,711.547546 531.654358,700.213196 529.051025,688.864075 
	C528.686646,687.275452 528.554810,685.534241 526.890137,684.178345 
	C525.012756,685.555664 525.348328,687.632507 525.335266,689.489197 
	C525.260193,700.154968 525.099731,710.823975 525.288818,721.486145 
	C525.374390,726.311890 523.844238,728.341125 518.705872,728.303162 
	C494.464417,728.123962 470.220215,728.160400 445.978485,728.333008 
	C441.821198,728.362610 440.284760,726.748108 440.251129,722.862549 
	C440.154510,711.699158 439.925995,700.536743 439.852966,689.373230 
	C439.767914,676.374329 439.724762,663.374207 439.810547,650.375549 
	C439.836792,646.397278 438.824677,642.886414 436.213135,639.027344 
	C433.728912,647.212341 433.408356,655.185242 432.325653,662.992493 
	C429.537628,683.097168 426.944214,703.230042 424.468048,723.375610 
	C424.036774,726.884521 422.797699,728.346680 419.179352,728.282043 
	C410.349152,728.124329 401.513214,728.176575 392.681335,728.285217 
	C389.431915,728.325195 387.906860,727.155029 387.510284,723.761108 
	C385.347382,705.251587 383.010284,686.762329 380.715546,668.268311 
	C379.649994,659.680481 378.618073,651.087158 377.399689,642.520691 
	C377.134186,640.653992 377.202942,638.450989 375.272705,637.132568 
	C372.839813,637.347351 372.964783,639.320435 372.870605,640.860352 
	C372.596252,645.344971 372.390533,649.841187 372.380371,654.333374 
	C372.329315,676.832764 372.220062,699.333557 372.443726,721.830811 
	C372.493896,726.877686 370.933899,728.674194 365.874207,728.345276 
	C360.065735,727.967651 354.202789,728.049683 348.384033,728.341553 
	C344.438934,728.539429 342.775513,726.958252 341.943054,723.228699 
	C339.117035,710.567993 336.042511,697.962585 333.023438,685.345459 
	C332.770691,684.289062 332.882263,682.927917 331.383026,682.468018 
	C329.746368,683.920349 330.354279,685.875549 330.340118,687.614807 
	C330.246521,699.113647 330.098358,710.615173 330.265137,722.111572 
	C330.328918,726.508057 329.080627,728.594666 324.315338,728.302002 
	C319.001556,727.975708 313.636078,727.937683 308.325226,728.277039 
	C303.291504,728.598816 302.002106,726.185181 302.021088,721.746826 
	C302.080292,707.914673 301.959686,694.081787 301.918427,680.249146 
	C301.903595,675.274109 301.916046,670.298950 301.060516,665.324341 
	C301.060516,671.306091 300.901520,677.292908 301.093079,683.268433 
	C301.515533,696.448059 300.291443,709.572571 300.012665,722.726501 
	C299.928802,726.680908 298.279999,728.408936 294.203247,728.275085 
	C288.043549,728.072693 281.869598,728.129822 275.706451,728.276672 
	C272.200775,728.360107 270.590759,727.235718 270.590240,723.424438 
	C270.589386,717.110779 270.084412,710.797058 269.603973,704.398865 
	C270.148712,716.036621 260.324921,720.567627 253.957886,727.425903 
	C252.908539,728.556152 251.135651,728.260681 249.639603,728.263367 
	C240.639893,728.279419 231.639099,728.206970 222.640961,728.330383 
	C219.737305,728.370239 217.619827,727.334290 215.590210,725.320801 
	C203.854477,713.678284 203.819809,713.710571 203.827789,697.273987 
	C203.830383,691.940796 203.991104,686.603027 203.814270,681.276123 
	C203.694183,677.659241 205.119781,676.070557 208.735657,676.095093 
	C215.401230,676.140320 222.069351,676.109314 228.733368,675.966858 
	C232.435760,675.887695 233.658234,677.464844 233.452240,681.128296 
	C233.162659,686.278259 233.360413,691.456970 233.395432,696.623169 
	C233.408142,698.497437 233.488724,700.484924 235.997925,700.730103 
	C238.632614,700.987488 238.890549,698.981445 239.071716,697.115967 
	C240.040390,687.141663 239.641617,677.142456 239.477386,667.152527 
	C239.436707,664.678162 238.068787,663.122009 235.323624,663.231323 
	C233.992523,663.284241 232.646164,663.127869 231.326324,663.260864 
	C223.373672,664.062439 216.027176,663.393799 211.223953,655.719055 
	C210.651489,654.804260 209.612854,654.009888 208.133469,654.056885 
	C204.689194,657.691956 200.973618,661.251465 197.691010,665.173462 
	C193.956039,669.635864 189.474869,671.275635 183.679688,671.231323 
	C169.956833,671.126221 169.978607,671.338013 169.995102,684.887756 
	C170.010117,697.220703 169.840042,709.555542 170.014893,721.885864 
	C170.080078,726.481689 168.742996,728.610535 163.751007,728.310974 
	C157.773254,727.952271 151.753113,728.125610 145.757935,728.298401 
	C142.216110,728.400513 140.751495,727.225647 140.648743,723.454529 
	C139.454681,679.633362 140.166901,635.805481 140.069519,591.981140 
	C140.058807,587.158997 140.641220,582.336609 140.660950,577.513184 
	C140.674835,574.119873 142.020920,572.836792 145.420074,572.711365 
	C151.849045,572.474243 158.373306,562.494080 156.288361,556.448486 
	C152.532684,545.558411 148.532349,543.176453 136.201218,544.487732 
	C122.366379,545.958923 121.801331,545.458191 117.642509,532.153076 
	C116.241798,527.671875 117.255203,524.453979 120.741508,521.558716 
	C124.196854,518.689148 127.693062,515.810242 130.771118,512.556763 
	C137.713943,505.218323 135.610489,497.555664 125.835823,494.873077 
	C121.047806,493.559052 116.044914,492.954498 111.103729,492.295166 
	C107.091980,491.759857 104.708954,489.776306 104.013626,485.787537 
	C103.956421,485.459351 103.887703,485.133087 103.819260,484.807007 
	C100.920364,470.997559 100.936867,471.025757 113.161316,463.845551 
	C115.737053,462.332611 118.359489,460.775024 120.582184,458.810181 
	C125.704857,454.281830 125.164841,447.346832 119.463387,443.520081 
	C114.992531,440.519318 109.866585,438.943024 104.780357,437.319458 
	C97.951172,435.139496 96.937431,433.672699 96.798752,426.053589 
	C96.614410,415.926025 97.715691,413.775330 104.474777,411.282959 
	C108.691322,409.728149 113.067337,408.557312 116.987556,406.286133 
	C124.228584,402.091064 124.888641,394.958557 118.539543,389.579651 
	C114.698311,386.325348 110.355194,383.813812 105.824234,381.698486 
	C100.676590,379.295258 98.740555,375.437683 99.770317,369.964386 
	C100.170219,367.838867 100.685760,365.734894 101.073845,363.607422 
	C102.034195,358.342896 105.339783,355.977539 110.510101,355.839844 
	C115.375145,355.710297 120.166855,355.078949 124.607605,352.980896 
	C131.936966,349.518097 133.296310,343.489166 128.205231,337.199005 
	C124.710182,332.880829 120.174149,329.695526 115.838165,326.331512 
	C112.013031,323.363831 110.813301,319.919159 112.742340,315.401520 
	C113.525490,313.567444 114.165001,311.660919 114.725304,309.745056 
	C116.095200,305.061096 119.318596,303.072205 124.033943,303.025055 
	C127.699600,302.988434 131.363663,302.810211 135.029358,302.755432 
	C137.944687,302.711884 140.617188,301.788544 143.135605,300.472198 
	C148.382629,297.729675 149.923691,292.647614 147.099731,287.424011 
	C144.769104,283.113007 141.183746,279.821381 137.828369,276.343933 
	C132.894409,271.230469 132.649811,269.455170 135.797058,263.074036 
	C136.239197,262.177582 136.702057,261.291046 137.170532,260.407959 
	C141.971054,251.358780 142.824860,250.993637 152.807190,253.460922 
	C156.206192,254.301010 159.629135,254.937134 163.173248,254.820557 
	C172.189072,254.524002 176.430283,248.018127 172.649475,239.756256 
	C170.856644,235.838486 168.584412,232.098145 166.176376,228.514633 
	C163.268570,224.187317 163.332642,220.187836 166.484634,216.128006 
	C166.994431,215.471375 167.409744,214.742249 167.888443,214.060471 
	C174.051804,205.282684 175.161194,204.975647 185.122223,208.815323 
	C188.227219,210.012207 191.400681,211.042206 194.576157,212.042786 
	C198.869965,213.395782 202.973190,212.855484 206.171265,209.618423 
	C209.463791,206.285751 209.414017,202.095413 207.868439,197.936661 
	C206.418915,194.036331 204.936356,190.132385 203.171463,186.369232 
	C201.042160,181.829071 201.776978,178.335709 205.477814,174.783966 
	C215.845627,164.833847 216.735596,164.659103 228.825729,172.289474 
	C234.093811,175.614258 239.676819,179.192734 245.877853,174.798691 
	C251.972870,170.479721 250.003067,164.204987 248.849930,158.308594 
	C248.785950,157.981491 248.740204,157.650284 248.663742,157.326248 
	C245.432678,143.631668 246.010605,142.545074 258.159149,135.438660 
	C262.231903,133.056290 265.689148,133.343140 269.135254,136.276154 
	C272.811523,139.405075 276.257477,142.851227 280.170288,145.646118 
	C288.645081,151.699585 295.748901,148.514862 297.368927,138.247238 
	C298.057129,133.885284 297.002533,129.613266 296.892120,125.295059 
	C296.712097,118.253090 298.045471,116.225937 304.575806,113.600327 
	C305.811920,113.103317 307.053497,112.616135 308.310394,112.175156 
	C316.271393,109.382019 317.632019,109.816330 322.608337,116.556358 
	C324.882843,119.637009 326.974152,122.898468 329.566132,125.690224 
	C336.069580,132.694962 344.989258,130.768311 347.698792,121.668564 
	C349.161407,116.756439 349.978363,111.609261 350.626099,106.509628 
	C351.242096,101.659821 353.598602,98.908974 358.405823,98.216064 
	C358.733978,98.168762 359.051208,98.050285 359.377075,97.981834 
	C372.080475,95.313309 372.927765,95.745735 378.537292,107.472046 
	C379.901184,110.323181 381.163910,113.239571 383.266724,115.674515 
	C388.447418,121.673386 397.246613,120.855988 400.707184,113.734268 
	C403.026825,108.960571 404.845001,103.902016 406.440277,98.830238 
	C407.777649,94.578270 410.399078,92.453636 414.686615,92.107704 
	C416.014282,92.000580 417.345612,91.907883 418.676788,91.880013 
	C428.594635,91.672363 429.383698,92.289902 432.519958,101.691147 
	C433.730438,105.319656 435.080444,108.916039 436.615997,112.417831 
	C438.333374,116.334190 441.161407,118.770233 445.762146,119.054932 
	C450.348755,119.338753 453.408203,117.434875 455.567993,113.591232 
	C457.852631,109.525322 460.235382,105.514145 462.491547,101.432747 
	C464.734406,97.375366 468.112976,95.987549 472.556335,96.874763 
	C473.372742,97.037773 474.183075,97.231667 475.000549,97.388847 
	C487.216827,99.737778 487.146179,99.743805 488.375824,112.324486 
	C488.680969,115.446663 489.364441,118.583321 490.293579,121.583374 
	C493.041077,130.454865 501.490875,132.556793 508.061066,125.912498 
	C511.211121,122.726860 513.792664,118.985840 516.725098,115.576691 
	C521.499023,110.026680 523.297729,109.579346 530.238586,112.088303 
	C532.115662,112.766830 533.925964,113.628487 535.775330,114.385468 
	C539.783569,116.026070 541.697693,118.820694 541.419128,123.322853 
	C541.131470,127.972122 541.160645,132.656143 541.334351,137.314423 
	C541.497559,141.690903 543.015808,145.417999 547.356506,147.462799 
	C551.649353,149.485046 555.557007,148.626495 559.022217,145.814590 
	C562.247864,143.197037 565.250122,140.294556 568.257019,137.419571 
	C571.941284,133.896896 575.871643,132.839401 580.399048,135.776382 
	C581.095520,136.228165 581.872009,136.554352 582.589478,136.976212 
	C593.101013,143.156937 593.193970,143.354599 590.357666,155.189301 
	C589.578430,158.440750 588.969849,161.698929 589.140137,165.066803 
	C589.564514,173.463608 596.840210,178.115814 604.700134,174.942032 
	C608.908203,173.242844 612.439148,170.386581 616.237061,167.984512 
	C621.265747,164.804031 631.008484,168.276749 632.863647,173.939499 
	C633.903992,177.115234 630.737610,178.981735 629.986328,182.323090 
	C633.429321,180.579025 635.928040,178.347275 638.341125,176.006485 
	C662.741760,152.337158 686.924805,128.438614 711.589905,105.048271 
	C738.664917,79.372559 766.180725,54.161732 793.514526,28.759048 
	C794.488342,27.854008 795.502869,26.961971 796.613708,26.241718 
	C798.586060,24.962812 800.662170,24.508467 802.488586,26.490088 
	C804.204651,28.351948 804.204956,30.419285 802.694824,32.394608 
	C798.649597,37.685905 794.609680,42.983097 790.464294,48.195694 
	C764.853638,80.399918 739.256592,112.615128 713.568115,144.757248 
	C698.903687,163.105804 684.159424,181.392410 669.249756,199.541534 
	C666.202515,203.250793 666.113220,205.572937 669.729553,209.035110 
	C680.191101,219.050613 680.016846,219.199814 671.955017,231.294571 
	C668.286865,236.797745 665.263489,242.441391 669.028137,249.176147 
	C671.924988,249.113922 673.082703,247.055695 674.546326,245.601456 
	C696.416321,223.871582 718.244690,202.099899 740.088440,180.343628 
	C740.913879,179.521439 741.735901,178.676605 742.662415,177.979004 
	C744.680420,176.459579 746.940491,175.803818 749.096130,177.496567 
	C751.366150,179.279144 750.952393,181.723709 749.709778,183.840469 
	C745.747192,190.590851 741.562195,197.210358 737.578491,203.948654 
	C722.658508,229.185745 706.807800,253.873138 692.848145,279.677521 
	C688.618469,287.496063 694.399780,298.590149 703.358276,299.608429 
	C708.150940,300.153229 712.974121,300.562866 717.793152,300.704346 
	C722.170410,300.832794 725.069153,302.666962 726.537231,306.787354 
	C726.984070,308.041595 727.531433,309.260315 727.969360,310.517365 
	C731.216125,319.837067 730.810486,321.083618 722.760132,326.655762 
	C719.608215,328.837433 716.386780,330.937775 713.868225,333.891327 
	C708.650696,340.010101 710.630920,348.126678 718.134216,350.998322 
	C722.516846,352.675598 727.186951,353.253784 731.813843,353.711700 
	C736.735779,354.198761 739.559082,356.395844 740.875977,361.372223 
	C744.488647,375.023499 744.634949,374.971283 731.942017,381.721497 
	C729.001892,383.285126 726.046631,384.844757 723.617859,387.198181 
	C718.378235,392.275360 718.854065,398.775604 724.857178,402.944672 
	C729.445190,406.130951 734.749695,407.780090 740.028381,409.236298 
	C745.065186,410.625732 747.143250,413.725494 747.099915,418.669922 
	C747.085327,420.336426 747.110779,422.004120 747.055237,423.669189 
	C746.771912,432.174042 745.710388,433.510376 737.615112,436.042725 
	C734.601135,436.985565 731.642090,438.104156 728.308594,439.277405 
M432.366730,115.957550 
	C431.043640,112.724640 429.625671,109.526772 428.416046,106.251953 
	C425.344208,97.935677 425.383789,98.019257 416.460083,98.224548 
	C413.537689,98.291771 411.993835,99.201332 411.069794,102.146294 
	C409.578949,106.897591 407.752960,111.579376 405.644440,116.092400 
	C402.856201,122.060318 397.847748,125.017525 391.287659,125.257011 
	C384.944183,125.488586 380.464874,122.321251 377.415527,117.072716 
	C375.327179,113.478210 373.634064,109.654465 371.752716,105.939079 
	C371.079865,104.610428 370.545654,103.147865 368.959076,102.582954 
	C363.592102,100.672005 355.976440,105.347610 355.383484,110.954872 
	C354.839142,116.102516 354.152618,121.244896 351.967987,125.977219 
	C347.186493,136.334702 335.569977,138.623978 327.110352,130.981781 
	C323.611572,127.821098 320.778839,124.054596 318.481079,120.018532 
	C315.763458,115.244972 312.384644,116.848068 308.665955,118.100304 
	C304.693817,119.437881 301.609192,121.150986 302.476135,126.168060 
	C303.159241,130.121201 303.379425,134.132828 302.895935,138.124344 
	C301.047791,153.382935 288.513397,158.857620 276.156494,149.770355 
	C273.615936,147.902054 271.091827,145.885727 269.021851,143.531662 
	C265.671844,139.721878 262.545715,139.369431 258.259125,142.254547 
	C251.622467,146.721390 251.527328,146.471069 253.671341,154.265533 
	C254.551056,157.463745 255.310089,160.724228 255.760010,164.006302 
	C257.323029,175.407730 246.923981,184.505005 235.822113,181.618927 
	C230.553970,180.249405 225.974899,177.475266 221.654053,174.388947 
	C218.121170,171.865448 215.702240,173.520035 213.342072,175.766876 
	C210.706848,178.275574 206.642670,180.174347 208.838638,185.142456 
	C210.520477,188.947433 212.060410,192.821457 213.505737,196.723206 
	C215.797516,202.909973 214.792191,208.639740 210.242889,213.404678 
	C205.856644,217.998840 200.257202,219.340256 194.176010,217.740692 
	C190.001694,216.642715 185.828827,215.318390 181.908661,213.537552 
	C178.031570,211.776245 175.801376,213.045761 173.597488,216.193283 
	C171.313324,219.455460 168.143860,222.146332 171.598938,226.641342 
	C174.536453,230.462952 176.960648,234.691376 178.712112,239.227219 
	C182.703659,249.564224 176.512741,259.421936 165.411453,260.394440 
	C161.576218,260.730408 157.797318,260.339264 154.008331,259.523590 
	C144.905365,257.563934 144.960373,257.681183 140.810776,266.084808 
	C139.520935,268.696960 139.548294,270.633240 141.817169,272.704254 
	C145.137573,275.735077 148.208603,279.036102 150.685760,282.834229 
	C157.451462,293.207733 153.883362,303.470703 142.049896,307.214905 
	C136.937119,308.832611 131.583435,309.281158 126.244568,309.016571 
	C122.720795,308.841980 120.605988,309.992462 119.581345,313.496582 
	C118.539642,317.059052 116.938866,320.370667 120.984558,323.315613 
	C125.155556,326.351746 129.099319,329.725952 132.436722,333.708496 
	C140.127274,342.885651 137.799927,353.162537 126.951363,358.253143 
	C122.043068,360.556396 116.785500,361.555817 111.485146,361.964508 
	C106.112213,362.378784 106.664474,366.587555 105.664993,369.894958 
	C104.711098,373.051544 105.606789,375.250702 108.684517,376.858612 
	C113.698273,379.477936 118.695457,382.181824 122.890984,386.096649 
	C131.138885,393.792664 130.259354,404.275635 120.763924,410.534058 
	C116.973251,413.032471 112.693848,414.478241 108.396385,415.818970 
	C105.086617,416.851593 101.845917,417.868378 102.439568,422.389801 
	C102.998886,426.649719 101.960602,431.491516 108.372482,432.835846 
	C113.728134,433.958710 118.881577,436.158478 123.304459,439.577972 
	C131.990799,446.293793 132.378616,455.763519 124.103424,462.946716 
	C121.106056,465.548553 117.712906,467.759735 114.287331,469.789764 
	C106.611305,474.338593 106.669197,474.217987 108.815247,482.584412 
	C109.557602,485.478485 110.912018,486.595093 113.915161,486.854034 
	C119.375351,487.324951 124.874016,488.008331 129.994019,490.184967 
	C140.785324,494.772644 143.474136,505.613251 136.151276,514.724854 
	C133.100067,518.521423 129.394028,521.603699 125.574028,524.576965 
	C123.873245,525.900757 122.217644,527.156433 122.692070,529.886047 
	C124.008255,537.458740 125.811974,538.970154 133.506836,538.808533 
	C143.847977,538.591248 154.699692,537.155640 160.351898,549.922241 
	C165.595886,543.269775 169.486649,536.843384 171.935165,529.524658 
	C172.997482,526.349365 172.902176,523.443115 171.661041,520.316223 
	C154.045120,475.935089 148.017471,430.187531 154.455627,382.692780 
	C159.983322,341.914398 172.569565,303.690247 195.846298,269.754517 
	C256.294128,181.626114 340.359314,141.592148 446.821625,150.076340 
	C489.161316,153.450455 528.213501,168.201477 564.575012,190.034134 
	C565.902832,190.831375 567.825134,191.215088 567.778137,193.804703 
	C566.525146,194.255081 565.188477,194.868790 563.785889,195.217743 
	C555.549377,197.266937 547.251953,199.089020 539.072937,201.342957 
	C535.744324,202.260239 533.023987,201.776260 530.023926,200.309799 
	C520.004272,195.412064 510.165070,190.100052 499.567902,186.465103 
	C468.679779,175.870132 437.089233,170.709488 404.317078,173.054382 
	C378.012756,174.936493 352.483429,180.172470 328.198517,190.298050 
	C275.630768,212.216217 235.281128,248.194122 207.219971,297.784302 
	C187.738846,332.211700 178.252609,369.487518 176.249222,408.822296 
	C174.739670,438.461151 179.642639,467.180664 188.558777,495.338531 
	C190.066559,500.100220 191.206940,504.938843 191.348526,509.995453 
	C191.763855,524.827515 185.596939,537.484924 178.333298,549.774963 
	C175.569748,554.450867 172.590652,558.999390 169.016083,564.715149 
	C176.875183,564.715149 183.639755,564.431702 190.366257,564.815491 
	C194.791885,565.068054 197.889664,563.499146 200.947556,560.521118 
	C209.541061,552.151855 218.226364,543.865784 227.125793,535.823914 
	C258.895416,507.115753 291.148560,478.942444 321.520721,448.710724 
	C355.296967,415.090698 389.254059,381.651855 423.212555,348.215515 
	C450.640869,321.208923 478.190796,294.325806 505.675537,267.376526 
	C507.265747,265.817352 508.989655,264.318817 509.360352,261.682037 
	C436.829926,308.863770 363.646729,354.900818 290.876129,401.927216 
	C311.848022,399.980743 332.125641,394.483429 353.251556,393.382721 
	C322.038391,427.656525 292.763062,463.324097 262.861938,497.989105 
	C260.762451,497.466492 260.338562,496.285889 259.897797,495.256653 
	C255.374481,484.694275 250.374725,474.268036 247.648300,463.069702 
	C239.850754,431.042328 240.575653,399.186157 249.444412,367.357941 
	C269.996735,293.599640 338.512726,240.669403 414.969421,239.774277 
	C432.092865,239.573807 448.829865,242.015839 465.225037,246.770432 
	C469.256042,247.939438 472.599670,247.412186 476.126312,245.355255 
	C482.312347,241.747238 488.647675,238.393845 494.940002,234.969666 
	C519.075745,221.835297 544.144104,210.411942 567.331909,195.543671 
	C569.733276,194.003860 571.689575,194.527100 573.732422,196.030548 
	C578.697144,199.684418 583.761536,203.210129 588.610107,207.011490 
	C590.925781,208.827011 592.607056,208.677673 594.652771,206.705292 
	C604.128540,197.569214 613.708374,188.540878 623.170288,179.390579 
	C624.465393,178.138184 626.684204,176.790573 624.614929,174.425018 
	C622.698608,172.234314 620.601929,171.722153 618.045532,173.527481 
	C614.226013,176.224869 610.146545,178.517197 605.814392,180.273819 
	C594.976013,184.668625 583.997742,177.333252 583.616516,165.636505 
	C583.461975,160.894165 584.040466,156.237213 585.710144,151.896606 
	C587.465881,147.332077 585.492065,145.180603 581.812256,143.228745 
	C578.117126,141.268707 574.741516,138.412582 570.716614,142.714676 
	C568.562805,145.016846 566.094727,147.041840 563.659668,149.060654 
	C558.037598,153.721542 551.949341,156.040802 544.774231,152.568130 
	C538.003784,149.291306 536.197083,143.204681 535.745972,136.466232 
	C535.501587,132.816650 535.394165,129.101883 535.789307,125.478065 
	C536.451599,119.404945 531.498535,119.327087 528.017273,117.473961 
	C524.400818,115.548889 522.132568,117.020424 519.990112,119.894577 
	C517.602417,123.097672 515.115173,126.246132 512.443909,129.213760 
	C508.157318,133.975952 502.905121,136.509903 496.363220,134.903427 
	C489.797791,133.291199 486.394653,128.576874 484.848846,122.343605 
	C483.808990,118.150444 482.662537,113.965904 482.591248,109.583031 
	C482.535950,106.185654 481.098755,103.741516 477.393158,103.504692 
	C473.585602,103.261353 469.237061,100.034691 466.395599,105.588264 
	C464.577423,109.141869 462.401703,112.513268 460.370422,115.957001 
	C453.341583,127.873405 440.447144,128.180038 432.366730,115.957550 
M578.802734,405.291962 
	C585.152954,400.892578 591.503235,396.493195 598.950439,391.333832 
	C605.859497,461.020844 585.585632,518.553040 531.373657,562.808960 
	C534.339661,565.077881 536.727173,564.657043 538.989746,564.658325 
	C562.137695,564.671631 585.296448,564.238342 608.427979,564.849304 
	C617.178284,565.080444 622.391357,562.176819 627.147766,554.945007 
	C662.603088,501.037445 673.648071,442.065979 664.230164,378.847565 
	C660.049805,350.786835 663.952271,324.126129 676.123779,298.625793 
	C684.818604,280.409515 695.501831,263.290833 705.796814,245.971909 
	C717.420410,226.417633 729.350464,207.045456 741.147278,187.594086 
	C740.839417,187.317078 740.531494,187.040070 740.223633,186.763062 
	C615.224426,313.292969 487.829285,437.413727 361.684509,562.791748 
	C362.294189,563.595520 362.903900,564.399292 363.513611,565.203064 
	C384.448914,552.372437 404.501801,538.106201 425.253418,524.983643 
	C446.227722,511.720276 466.879486,497.948029 487.791656,484.585175 
	C508.530731,471.332886 529.418274,458.312988 550.240662,445.191162 
	C550.029053,444.702301 549.817383,444.213409 549.605774,443.724518 
	C539.676392,443.999084 530.059326,447.218536 520.188049,448.040680 
	C519.999756,447.611664 519.811462,447.182648 519.623169,446.753662 
	C539.153870,433.071808 558.684509,419.389984 578.802734,405.291962 
M266.755951,554.258728 
	C264.140900,557.195740 261.525818,560.132690 258.878113,563.106384 
	C261.189636,565.072327 263.434906,564.658630 265.538879,564.662781 
	C275.032349,564.681396 284.555756,564.138794 294.010529,564.727478 
	C302.222168,565.238892 308.029785,562.179138 313.885376,556.655029 
	C344.185059,528.070740 374.753296,499.768829 405.395355,471.550354 
	C443.515961,436.444885 481.804596,401.522919 519.405701,365.856262 
	C542.573853,343.879974 562.288208,318.852051 582.731567,294.477173 
	C614.958618,256.052368 647.223083,217.653793 678.991577,178.851028 
	C707.382324,144.173691 735.135986,108.974487 763.144531,73.984528 
	C772.548340,62.236786 781.871460,50.424461 791.231445,38.641636 
	C790.870667,38.299953 790.509888,37.958275 790.149109,37.616592 
	C612.335815,206.090546 440.578644,380.717957 266.755951,554.258728 
M688.805847,384.894562 
	C691.208740,403.087769 692.093323,421.273682 690.472046,439.644623 
	C688.592834,460.937836 685.089905,481.840729 678.650391,502.234863 
	C672.668396,521.179749 665.215576,539.492004 655.497559,556.857788 
	C652.275391,562.615601 652.911072,563.536499 659.671570,563.570435 
	C666.834473,563.606323 673.999878,563.717407 681.159729,563.575012 
	C686.495422,563.468933 687.207825,562.441589 686.464233,557.158325 
	C684.959656,546.468750 690.611572,539.445068 701.521790,538.748657 
	C705.835205,538.473267 710.188782,538.519775 714.507874,538.738892 
	C717.863831,538.909241 719.996948,537.851929 720.615051,534.414062 
	C721.260071,530.826050 724.831909,527.199402 719.749878,523.817505 
	C715.607056,521.060547 711.762634,517.800598 708.565857,513.899353 
	C700.226318,503.721924 703.727783,491.698730 716.310059,488.047058 
	C720.590881,486.804718 725.109436,486.163086 729.564148,485.805145 
	C733.338440,485.501892 735.283997,484.091827 735.903687,480.250275 
	C736.516235,476.452362 738.122986,472.787140 733.245117,470.419342 
	C728.589050,468.159210 724.354492,465.139130 720.470520,461.724823 
	C710.615723,453.061768 712.044067,441.408417 723.690308,435.265594 
	C727.674622,433.164062 731.890381,431.472565 736.295105,430.573303 
	C741.901978,429.428619 741.142212,425.018188 741.498779,421.202850 
	C741.828369,417.675568 740.586121,415.223083 736.739624,414.175507 
	C731.925232,412.864349 727.248108,411.032043 722.955444,408.406982 
	C713.193970,402.437592 711.879517,390.968201 720.018066,383.004822 
	C723.777283,379.326569 728.480286,377.136322 733.091187,374.823486 
	C735.809387,373.460114 738.077576,371.963806 736.709167,368.362518 
	C735.342957,364.767059 736.392151,359.672760 730.213501,359.226440 
	C725.253601,358.868134 720.263306,358.132202 715.610962,356.162354 
	C704.532837,351.471893 701.891052,338.636841 710.156616,329.946960 
	C713.159119,326.790344 716.483398,324.005646 720.172729,321.722260 
	C723.800781,319.476837 724.329529,316.674896 722.961975,312.777313 
	C721.604980,308.909668 720.423279,305.963562 715.230896,306.161743 
	C706.773682,306.484558 698.210876,306.300598 691.270874,300.624481 
	C689.399475,301.491364 688.980957,303.021301 688.489441,304.382416 
	C685.095337,313.782776 682.398315,323.380310 680.293213,333.156799 
	C679.533936,336.683075 679.791992,339.969421 680.735229,343.429932 
	C684.368103,356.758270 686.867798,370.321625 688.805847,384.894562 
M519.595154,651.500549 
	C519.595154,644.421509 519.595154,637.342407 519.595154,630.263367 
	C520.080933,630.260986 520.566772,630.258667 521.052551,630.256348 
	C521.410339,631.160828 521.899170,632.036194 522.106934,632.973938 
	C528.254395,660.718567 534.476990,688.447388 540.402832,716.239441 
	C541.471130,721.249878 543.594177,723.442871 548.755798,722.741150 
	C551.208862,722.407776 553.761292,722.499939 556.239380,722.723938 
	C560.329956,723.093628 561.808167,721.526367 561.740173,717.338440 
	C561.532043,704.516968 561.675781,691.689880 561.673645,678.864929 
	C561.668457,647.885254 561.664551,616.905640 561.636780,585.925964 
	C561.634705,583.628418 562.335083,580.608337 560.151917,579.403870 
	C556.063232,577.148132 551.313354,577.889648 547.028259,578.841614 
	C543.962769,579.522644 544.924377,582.999146 544.931152,585.355957 
	C545.008850,612.504333 545.178894,639.652344 545.283630,666.800720 
	C545.289917,668.429993 545.873352,670.286499 544.435364,671.807800 
	C542.883179,670.465271 542.935486,668.910339 542.606567,667.472046 
	C536.602478,641.218445 530.646912,614.953308 524.521057,588.728088 
	C522.073914,578.251648 521.898376,578.292664 510.865601,578.355103 
	C502.961884,578.399902 502.289062,579.053894 502.290314,586.863403 
	C502.297058,628.336121 502.250671,669.808960 502.357727,711.281433 
	C502.392090,724.587646 500.185455,722.326111 514.102112,722.754883 
	C518.583679,722.892883 519.783081,721.237793 519.745117,716.957275 
	C519.554626,695.472900 519.628113,673.986328 519.595154,651.500549 
M308.141083,712.450684 
	C308.399536,724.189758 306.904144,722.318237 318.200195,722.797729 
	C323.195190,723.009705 324.828979,721.527405 324.791443,716.380676 
	C324.592255,689.050354 324.734467,661.717285 324.817688,634.385437 
	C324.822845,632.707031 324.023438,630.781982 325.598358,629.340881 
	C327.044952,629.562744 327.061646,630.641479 327.271362,631.600098 
	C333.027191,657.913086 338.747894,684.233887 344.561096,710.534180 
	C347.261292,722.750488 347.343231,722.732300 360.185577,722.670288 
	C366.770477,722.638489 366.814606,722.616455 366.826508,715.935120 
	C366.879303,686.269775 366.934052,656.604431 366.955292,626.939087 
	C366.965424,612.773132 366.814941,598.606445 366.923462,584.441528 
	C366.957886,579.948486 365.179565,577.908325 360.679962,578.266785 
	C359.520508,578.359131 358.347748,578.281921 357.181152,578.288025 
	C350.210693,578.324280 350.141144,578.352356 350.152130,585.219604 
	C350.195618,612.384705 350.278259,639.549805 350.302582,666.714905 
	C350.304108,668.404480 350.830078,670.270264 349.571899,671.869568 
	C347.629608,670.966492 347.961212,669.305115 347.631836,667.918457 
	C341.405884,641.706604 336.798035,615.125916 329.666779,589.120667 
	C326.276978,576.759155 328.032654,578.419006 315.453949,578.297791 
	C308.237701,578.228271 308.175110,578.297119 308.170349,585.470032 
	C308.142517,627.468018 308.146027,669.466064 308.141083,712.450684 
M752.349304,686.985901 
	C751.077148,680.293457 750.163757,673.505493 748.414368,666.940186 
	C747.118225,662.075439 748.113708,658.482788 751.911194,655.477844 
	C756.464355,651.874878 757.887390,647.274353 757.723877,641.463745 
	C757.358704,628.486816 757.011230,615.452026 757.850891,602.518311 
	C758.438354,593.469421 755.813599,586.902039 748.772095,581.440430 
	C746.117859,579.381714 743.764832,578.085083 740.330872,578.155273 
	C729.844849,578.369812 719.352539,578.274719 708.862671,578.309448 
	C702.126770,578.331665 702.123779,578.339050 702.124023,584.833618 
	C702.125549,626.793152 702.127563,668.752686 702.131531,710.712219 
	C702.132629,722.710938 702.135803,722.710938 713.923950,722.678467 
	C720.551697,722.660278 720.594910,722.660400 720.609497,716.053528 
	C720.646179,699.402954 720.616150,682.752258 720.667603,666.101746 
	C720.681091,661.752380 722.805359,660.192017 726.945557,661.102844 
	C729.728333,661.715088 729.879822,664.004578 730.270874,666.074707 
	C733.015869,680.604736 735.695679,695.147034 738.415710,709.681824 
	C740.967041,723.314209 740.974609,723.232788 754.554504,722.735962 
	C757.908936,722.613281 758.902710,721.636292 758.202698,718.199707 
	C756.147278,708.109070 754.403503,697.955078 752.349304,686.985901 
M654.556396,722.720032 
	C660.054321,722.721069 665.552246,722.725342 671.050171,722.722473 
	C679.703186,722.718018 688.705444,713.729065 688.708496,705.056885 
	C688.720703,670.403748 688.489136,635.747864 688.901489,601.099548 
	C688.995239,593.225952 686.888306,587.510010 680.884705,582.470947 
	C677.462280,579.598328 674.355896,577.949707 669.824158,578.184570 
	C663.012085,578.537598 656.167175,578.210876 649.337219,578.275696 
	C641.986572,578.345520 632.212830,588.030579 632.208191,595.284729 
	C632.184448,632.436768 632.204712,669.588745 632.198914,706.740784 
	C632.198608,708.760315 632.193054,710.754822 633.605225,712.415649 
	C638.852722,718.587402 644.114807,724.728210 654.556396,722.720032 
M233.928192,593.892700 
	C242.219254,593.689148 244.203934,596.090149 244.356598,605.716248 
	C244.597519,620.907043 241.804703,618.381531 257.687561,618.740112 
	C261.286377,618.821289 262.936188,617.592468 262.766632,613.862976 
	C262.607971,610.372681 262.348602,606.799622 262.887268,603.381775 
	C264.327972,594.240479 261.091461,587.344910 254.014954,581.677246 
	C251.562744,579.713196 249.374329,578.194397 246.078476,578.291626 
	C239.752548,578.478271 233.416946,578.303772 227.086685,578.383850 
	C220.136292,578.471802 210.313995,588.340698 210.295258,595.284912 
	C210.252991,610.946106 210.341644,626.607910 210.239578,642.268555 
	C210.220779,645.153809 211.482529,647.128784 212.997696,649.435913 
	C217.526215,656.331299 223.604004,659.008423 231.640381,657.732544 
	C232.940948,657.526062 234.301712,657.686523 235.634491,657.697388 
	C242.168182,657.750671 244.825424,660.067078 244.953964,666.654968 
	C245.161942,677.313721 245.151382,687.980957 244.995132,698.641113 
	C244.908676,704.539551 242.070038,706.978699 236.107162,706.969360 
	C231.078506,706.961487 228.839127,704.423340 228.657593,698.511536 
	C228.606445,696.846375 228.633194,695.177185 228.532410,693.515442 
	C227.792419,681.312683 226.058685,679.912354 213.783524,681.540527 
	C213.618378,681.562439 213.453430,681.588074 213.287537,681.601990 
	C210.483109,681.837097 209.251572,683.217346 209.309708,686.166931 
	C209.450882,693.328369 209.258286,700.496094 209.376022,707.658325 
	C209.472641,713.536255 219.035080,722.710815 224.974091,722.744995 
	C232.304657,722.787231 239.635910,722.776367 246.966476,722.727051 
	C253.287399,722.684570 262.811798,713.670959 262.860504,707.410339 
	C262.991455,690.583862 262.936829,673.755981 262.968781,656.928650 
	C262.972687,654.857300 262.462830,653.074524 261.019867,651.452698 
	C255.510147,645.260132 249.995743,639.255920 240.377304,641.997070 
	C239.302048,642.303528 238.052597,642.081055 236.892334,641.993042 
	C231.500473,641.583679 228.752441,638.804443 228.698883,633.309937 
	C228.596588,622.814575 228.672363,612.317566 228.651855,601.821228 
	C228.645111,598.362488 229.930923,595.688232 233.928192,593.892700 
M401.542206,655.905273 
	C399.925049,639.522339 398.312012,623.138916 396.688843,606.756592 
	C395.934662,599.144470 395.257294,591.522461 394.331146,583.931030 
	C394.085052,581.913879 394.063538,579.020569 391.389526,578.670166 
	C386.982239,578.092773 382.011292,576.879578 378.207977,579.249390 
	C374.465332,581.581360 376.318970,586.296570 376.726410,589.959717 
	C378.085602,602.180115 379.726990,614.368835 381.210815,626.575684 
	C384.940552,657.258301 388.666534,687.941467 392.318268,718.633423 
	C392.658630,721.493896 393.843445,722.760864 396.768097,722.711243 
	C402.929413,722.606445 409.094147,722.627625 415.256439,722.693054 
	C417.798309,722.720032 419.339996,721.912720 419.669556,719.141479 
	C420.238312,714.358948 421.078339,709.608887 421.665894,704.828186 
	C424.220184,684.046448 426.774139,663.264282 429.232239,642.471008 
	C431.495636,623.324707 433.703278,604.171082 435.788879,585.004761 
	C436.384277,579.533081 435.336700,578.590942 429.845734,578.337524 
	C428.682007,578.283813 427.501190,578.428833 426.350494,578.293274 
	C421.485840,577.720215 419.641998,579.822021 419.182312,584.719482 
	C417.644318,601.105713 415.449554,617.430237 413.908997,633.816284 
	C411.979034,654.344543 409.176697,674.793579 408.191528,695.410522 
	C408.127380,696.752991 408.739410,698.505493 406.144531,699.361633 
	C404.154877,685.121094 402.678345,670.995117 401.542206,655.905273 
M161.785202,722.584229 
	C165.455353,721.248413 164.550201,717.970215 164.572708,715.359070 
	C164.697601,700.875305 164.793884,686.387146 164.538681,671.906860 
	C164.456909,667.266296 165.591873,665.167847 170.603714,665.587830 
	C175.232910,665.975647 179.920746,665.710754 184.581924,665.658691 
	C191.443619,665.582092 200.659836,656.324402 200.671814,649.462891 
	C200.699722,633.479675 200.029739,617.459961 200.926346,601.527283 
	C201.436096,592.468689 198.145874,586.341431 191.773590,580.883606 
	C189.759491,579.158508 187.738998,578.235352 185.049637,578.260620 
	C174.062057,578.363953 163.069931,578.472107 152.086090,578.250854 
	C147.527969,578.159058 146.167267,579.721802 146.198868,584.308228 
	C146.389313,611.944519 146.272186,639.582947 146.263275,667.220642 
	C146.257904,683.869812 146.398788,700.520935 146.171249,717.166992 
	C146.110168,721.635925 147.615280,723.165710 151.937271,722.737976 
	C154.905884,722.444092 157.925400,722.664551 161.785202,722.584229 
M464.654266,662.642883 
	C464.240845,659.003784 465.795441,657.411560 469.503937,657.689026 
	C471.989807,657.875000 474.500671,657.728821 477.000336,657.728333 
	C488.414948,657.726074 488.308533,657.730591 487.793152,646.510681 
	C487.645172,643.289246 486.435364,642.006531 483.298676,642.072754 
	C478.468018,642.174744 473.633026,642.066467 468.802002,642.158325 
	C465.665497,642.217957 464.337494,640.937866 464.353760,637.691467 
	C464.418823,624.710693 464.345673,611.728821 464.248749,598.747925 
	C464.225342,595.612427 465.009796,593.653137 468.708313,593.755493 
	C474.702972,593.921326 480.705475,593.836243 486.704285,593.800049 
	C488.172760,593.791199 490.150421,594.138367 490.821045,592.637268 
	C492.509399,588.857849 492.145599,584.753540 491.092896,580.940857 
	C490.266174,577.946777 487.180328,578.332458 484.702118,578.325073 
	C473.870300,578.292664 463.038269,578.281555 452.206451,578.307007 
	C446.349548,578.320801 445.408905,579.079773 445.401581,584.859497 
	C445.345551,629.186829 445.399536,673.514404 445.315491,717.841675 
	C445.308441,721.554382 446.655182,722.795410 450.303345,722.738586 
	C460.632690,722.577698 470.966400,722.698914 481.298370,722.699829 
	C492.533936,722.700745 493.064484,721.978394 491.390625,710.769348 
	C490.906219,707.525696 489.731415,706.185364 486.227386,706.473694 
	C480.926117,706.909851 475.570007,706.637329 470.254242,706.953064 
	C465.868256,707.213501 464.486481,705.415771 464.563385,701.111572 
	C464.786591,688.617188 464.644257,676.116272 464.654266,662.642883 
M588.214600,621.500000 
	C588.215881,651.145691 588.160034,680.791504 588.242798,710.436951 
	C588.283081,724.856384 586.540039,722.224365 600.315002,722.782410 
	C605.446838,722.990295 606.804993,721.266479 606.783264,716.261414 
	C606.616455,677.956116 606.719360,639.649658 606.740479,601.343567 
	C606.744446,594.213867 606.750793,594.211914 614.008667,594.074280 
	C624.726562,593.870911 624.786743,593.804138 623.946289,583.041260 
	C623.933411,582.875244 623.914612,582.709045 623.913818,582.542847 
	C623.900085,579.707275 622.599731,578.279724 619.641357,578.286072 
	C604.485718,578.318542 589.329834,578.284851 574.174072,578.291748 
	C572.665649,578.292419 570.800842,578.265442 570.487793,580.098328 
	C569.786804,584.202393 569.080933,588.630920 570.809631,592.390076 
	C572.155090,595.315857 575.917847,593.668152 578.614563,593.961853 
	C579.931824,594.105469 581.282043,594.074707 582.608032,593.984924 
	C586.594971,593.715027 588.370850,595.364929 588.257202,599.516663 
	C588.065796,606.506226 588.213806,613.505066 588.214600,621.500000 
M276.080170,614.500000 
	C276.115356,646.803467 276.137604,679.106934 276.192780,711.410400 
	C276.212067,722.702881 276.249084,722.702881 287.655792,722.690613 
	C294.610504,722.683105 294.620850,722.682129 294.623383,715.815063 
	C294.638733,674.353333 294.650787,632.891541 294.660950,591.429810 
	C294.664246,577.976013 294.661346,578.118103 281.235687,578.236633 
	C277.232056,578.272034 276.024567,579.746582 276.077393,583.528870 
	C276.216888,593.517273 276.095367,603.509399 276.080170,614.500000 
M470.174316,675.538879 
	C470.182831,682.036072 470.436768,688.545410 470.118103,695.026489 
	C469.885620,699.754700 471.795776,701.170349 476.247559,700.919128 
	C481.228851,700.638184 486.255127,700.634949 491.232544,700.959717 
	C495.753021,701.254578 496.907654,699.371216 496.859650,695.128052 
	C496.669373,678.304260 496.770813,661.477112 496.771362,644.651245 
	C496.771576,637.987732 496.745514,631.323669 496.820770,624.660889 
	C496.857147,621.442993 495.500580,619.067200 492.224884,619.604919 
	C485.671692,620.680847 479.075470,621.906372 472.889648,624.423157 
	C468.990082,626.009766 470.289032,629.756653 470.367218,632.772888 
	C470.446716,635.840271 472.908752,635.829224 475.111633,635.859497 
	C479.608887,635.921204 484.108002,635.986755 488.604431,635.919739 
	C491.904297,635.870544 493.537994,637.133606 493.365387,640.645447 
	C493.193909,644.134888 493.394623,647.640991 493.350708,651.138672 
	C493.173187,665.279236 495.334320,663.122009 481.208557,663.293518 
	C470.148285,663.427856 470.147034,663.325378 470.174316,675.538879 
M234.251511,609.093872 
	C234.184845,614.249023 234.022339,619.405151 234.070740,624.559204 
	C234.184738,636.698792 232.999588,635.919678 245.370895,635.966614 
	C248.651978,635.979065 252.305695,635.172913 254.972015,637.621155 
	C262.713531,644.729370 271.953186,651.140137 269.281952,663.955139 
	C269.248199,664.117065 269.464600,664.331238 269.755798,664.885681 
	C269.593994,650.812561 271.852600,637.129517 270.114044,623.350464 
	C261.777069,625.169739 253.824692,624.099731 245.920822,624.260986 
	C239.007156,624.402100 239.059967,624.244568 238.873322,617.403625 
	C238.750519,612.902405 239.425690,608.302979 238.224625,603.717346 
	C235.130783,604.369629 234.411316,606.079468 234.251511,609.093872 
M661.134338,222.596664 
	C653.854492,231.674194 646.543335,240.726959 639.324829,249.853012 
	C638.082642,251.423447 635.873718,252.955582 637.723389,255.461105 
	C639.863159,258.359589 641.443604,261.702087 644.459717,264.382690 
	C650.287109,259.330170 655.418884,253.929443 660.434814,248.415466 
	C660.968079,247.829269 661.536621,246.948120 661.507507,246.227280 
	C661.160828,237.630936 665.798950,231.067947 670.258606,224.428543 
	C672.884521,220.519150 671.787231,217.705917 667.789551,215.420074 
	C665.214478,217.323898 663.361206,219.653198 661.134338,222.596664 
z"/>
<path fill="currentColor" opacity="1.000000" stroke="none" 
	d="
M98.019821,728.274841 
	C84.517670,731.191589 78.524605,721.333252 71.327446,713.782471 
	C69.898430,712.283203 70.086548,710.038757 70.095856,708.033691 
	C70.275345,669.375793 70.475227,630.717896 70.625656,592.059814 
	C70.636017,589.397522 71.382156,587.162109 73.288948,585.313477 
	C73.527611,585.082092 73.732452,584.816040 73.958183,584.570923 
	C84.790886,572.806152 84.790955,572.806580 100.811493,572.754150 
	C103.644600,572.744873 106.587044,573.229126 109.292320,572.635132 
	C122.722122,569.686646 129.566162,578.960449 137.024780,587.185242 
	C138.371078,588.669861 138.346802,590.544556 138.346375,592.384033 
	C138.337250,631.039429 138.310471,669.694885 138.334091,708.350281 
	C138.335831,711.195251 137.138474,713.299988 135.523895,715.568665 
	C128.729996,725.114746 120.230064,730.460144 108.001213,728.329834 
	C104.929382,727.794678 101.682388,728.265076 98.019821,728.274841 
M113.337997,578.237488 
	C106.840561,578.245544 100.343071,578.275085 93.845711,578.256348 
	C84.924988,578.230591 75.374748,587.603394 75.383545,596.487427 
	C75.417336,630.628784 75.750114,664.773438 75.329994,698.908997 
	C75.227997,707.196106 76.655510,713.619690 83.424095,718.913086 
	C86.653198,721.438477 89.523270,723.005188 93.661049,722.843384 
	C100.814735,722.563538 107.985916,722.729797 115.149757,722.711243 
	C123.703323,722.689026 132.670181,713.822449 132.673889,705.344421 
	C132.689789,669.025208 132.696762,632.706055 132.702148,596.386841 
	C132.703476,587.396851 123.376396,578.214417 113.337997,578.237488 
z"/>
<path fill="currentColor" opacity="1.000000" stroke="none" 
	d="
M724.229004,593.914734 
	C738.279968,593.757019 739.067566,594.496094 739.172241,608.125061 
	C739.245056,617.601868 739.230774,627.079651 739.205627,636.556885 
	C739.184998,644.305542 737.153564,646.353516 729.511475,646.358215 
	C719.885925,646.364075 720.678040,647.223633 720.661926,637.503174 
	C720.640747,624.700378 720.642578,611.897522 720.661438,599.094727 
	C720.664856,596.795532 720.289551,594.189087 724.229004,593.914734 
M726.132446,636.086548 
	C726.088745,639.110413 727.713867,640.209167 730.562317,640.020691 
	C733.320435,639.838074 733.637634,637.944641 733.634949,635.803833 
	C733.622253,625.658386 733.630615,615.512756 733.562866,605.367615 
	C733.543884,602.515015 732.983093,599.929260 729.195374,600.106506 
	C725.592468,600.275208 726.138367,603.018555 726.124573,605.240479 
	C726.062622,615.219238 726.091553,625.198547 726.132446,636.086548 
z"/>
<path fill="currentColor" opacity="1.000000" stroke="none" 
	d="
M670.272461,613.011047 
	C670.275574,640.831543 670.287354,668.154358 670.278992,695.477112 
	C670.275879,705.459595 666.670532,708.463806 656.871216,706.232849 
	C653.285645,705.416504 650.657898,703.196899 650.661438,698.919373 
	C650.688416,666.598633 650.639954,634.277771 650.712708,601.957153 
	C650.724487,596.752136 653.855347,594.084106 659.459106,593.892456 
	C666.271729,593.659424 669.778564,596.039185 670.176575,601.521606 
	C670.441406,605.168640 670.256653,608.848267 670.272461,613.011047 
M656.226929,697.941467 
	C656.776123,701.818054 659.750305,700.862183 662.054077,700.628479 
	C665.163940,700.312927 664.695496,697.641968 664.696838,695.565308 
	C664.715576,665.744263 664.690491,635.923218 664.672058,606.102173 
	C664.671631,605.436340 664.626038,604.770447 664.599976,604.104675 
	C664.470825,600.804382 662.501282,599.946838 659.552246,600.133606 
	C655.285400,600.403687 656.229431,603.652649 656.224121,606.089294 
	C656.157471,636.409851 656.175598,666.730652 656.226929,697.941467 
z"/>
<path fill="currentColor" opacity="1.000000" stroke="none" 
	d="
M178.455750,649.150269 
	C177.015778,649.308716 176.015793,649.425781 175.020386,649.395020 
	C163.786362,649.047791 163.993088,652.069092 164.139832,637.874451 
	C164.268845,625.395142 164.463028,612.915344 164.448227,600.436035 
	C164.440811,594.182007 164.579803,593.838989 170.680634,593.804443 
	C180.385300,593.749512 182.358566,595.702026 182.377701,605.462097 
	C182.401550,617.627136 182.365463,629.792419 182.434311,641.957153 
	C182.451462,644.989319 181.940140,647.607300 178.455750,649.150269 
M176.910431,621.500122 
	C176.889847,615.679504 176.835480,609.858643 176.864182,604.038269 
	C176.876907,601.459351 175.836380,599.924927 173.160858,599.719421 
	C170.152084,599.488403 170.060852,601.615845 170.049408,603.679749 
	C169.982971,615.653442 169.951584,627.627258 169.916382,639.601074 
	C169.909332,641.999146 170.448730,643.909851 173.469070,643.866699 
	C176.530853,643.822937 176.857468,641.815063 176.859741,639.463074 
	C176.865204,633.808655 176.892822,628.154297 176.910431,621.500122 
z"/>
<path fill="currentColor" opacity="1.000000" stroke="none" 
	d="
M94.669281,686.995361 
	C94.677956,659.180725 94.678001,631.864868 94.699577,604.549072 
	C94.706802,595.402771 100.633347,591.174927 109.310547,594.257507 
	C113.049469,595.585754 114.418625,598.511719 114.396980,602.496948 
	C114.298340,620.651428 114.368561,638.806702 114.373322,656.961731 
	C114.376900,670.619629 114.400246,684.277649 114.361382,697.935425 
	C114.342026,704.736206 111.733551,707.060730 104.294136,707.108398 
	C97.470169,707.152161 94.795570,704.640137 94.684097,697.987427 
	C94.625504,694.490601 94.670723,690.992004 94.669281,686.995361 
M108.778946,635.500000 
	C108.774605,625.353821 108.677605,615.206299 108.817635,605.062134 
	C108.864838,601.642822 107.865540,599.541504 104.191505,599.526306 
	C100.276558,599.510132 100.272797,602.375244 100.266159,605.121643 
	C100.237198,617.097412 100.235298,629.073242 100.227768,641.049011 
	C100.216270,659.345337 100.286446,677.642334 100.137886,695.937561 
	C100.105110,699.974304 101.708588,701.266052 105.515671,700.918335 
	C109.373421,700.565979 108.758041,697.772827 108.762245,695.381042 
	C108.796722,675.754089 108.780373,656.127014 108.778946,635.500000 
z"/>
</svg>