<svg xmlns="http://www.w3.org/2000/svg" viewBox="0 0 1200 720" width="1200" height="720" role="img" aria-label="Page Tracker">
  <title>Page Tracker</title>
  <desc>A translation matrix filling row by row, with a tick for the QA pass.</desc>
  <rect width="1200" height="720" fill="#0e0e0e"/>
  <rect x="77" width="1123" height="720" fill="#1b1b1b"/>
  <path d="M135 0V720M193 0V720M251 0V720M309 0V720M367 0V720M425 0V720M483 0V720M541 0V720M599 0V720M657 0V720M715 0V720M773 0V720M831 0V720M889 0V720M947 0V720M1005 0V720M1063 0V720M1121 0V720M1179 0V720M77 58H1200M77 116H1200M77 174H1200M77 232H1200M77 290H1200M77 348H1200M77 406H1200M77 464H1200M77 522H1200M77 580H1200M77 638H1200M77 696H1200" stroke="#0e0e0e" stroke-width="1" fill="none"/>
  <rect x="58" width="19" height="720" fill="#eb1000"/>
  <rect x="210" y="176" width="100" height="82" rx="10" fill="#f9f9f9"/>
  <rect x="332" y="176" width="100" height="82" rx="10" fill="#f9f9f9"/>
  <rect x="454" y="176" width="100" height="82" rx="10" fill="#f9f9f9"/>
  <rect x="576" y="176" width="100" height="82" rx="10" fill="#f9f9f9"/>
  <rect x="698" y="176" width="100" height="82" rx="10" fill="#f9f9f9"/>
  <rect x="210" y="280" width="100" height="82" rx="10" fill="#f9f9f9"/>
  <rect x="332" y="280" width="100" height="82" rx="10" fill="#f9f9f9"/>
  <rect x="454" y="280" width="100" height="82" rx="10" fill="#f9f9f9"/>
  <rect x="576" y="280" width="100" height="82" rx="10" fill="#f9f9f9"/>
  <rect x="698" y="280" width="100" height="82" rx="10" fill="#282828"/>
  <rect x="210" y="384" width="100" height="82" rx="10" fill="#f9f9f9"/>
  <rect x="332" y="384" width="100" height="82" rx="10" fill="#f9f9f9"/>
  <rect x="454" y="384" width="100" height="82" rx="10" fill="#eb1000"/>
  <rect x="576" y="384" width="100" height="82" rx="10" fill="#282828"/>
  <rect x="698" y="384" width="100" height="82" rx="10" fill="#282828"/>
  <rect x="210" y="488" width="100" height="82" rx="10" fill="#f9f9f9"/>
  <rect x="332" y="488" width="100" height="82" rx="10" fill="#282828"/>
  <rect x="454" y="488" width="100" height="82" rx="10" fill="#282828"/>
  <rect x="576" y="488" width="100" height="82" rx="10" fill="#282828"/>
  <rect x="698" y="488" width="100" height="82" rx="10" fill="#282828"/>
  <polyline points="930,380 990,441 1098,293" fill="none" stroke="#f9f9f9" stroke-width="30" stroke-linecap="round" stroke-linejoin="round"/>
  <rect x="210" y="614" width="388" height="14" rx="7" fill="#6b7280"/>
  <rect x="210" y="614" width="212" height="14" rx="7" fill="#eb1000"/>
</svg>
