<?xml version="1.0" encoding="UTF-8"?>
<svg xmlns="http://www.w3.org/2000/svg" viewBox="0 0 24 24" width="24" height="24" fill="#000000" role="img"><title>Education</title><g transform="translate(2.354 6.1995) scale(0.0759)"><path d="M254.1,34.7c-0.7-5-7.4-7.9-13-9.4c-0.1,0-0.1,0-0.2,0L135.4,0.7c-0.1,0-0.2,0-0.3-0.1c-4.4-0.6-9.3-1.2-15.4,0 c0,0-0.1,0-0.1,0L12.5,25.4c-0.1,0-0.1,0-0.2,0.1C7,27,0.6,29.9,0,34.9c-0.1,1.2-0.1,4.2,3.6,6.3c0.3,0.2,0.6,0.3,1,0.4l38.2,9.7 v36.3c0,23.6,20.4,32.3,35.8,36.7c0.8,0.2,20.6,5.8,49.1,5.8c28.4,0,51-5.5,51.9-5.8c0.1,0,0.2,0,0.2-0.1 c15.3-4.8,35.7-13.8,35.7-36.7V50.4l11.3-3v48.3h-4.2c-0.9,0-1.6,0.7-1.6,1.6v21.3c0,0.9,0.7,1.6,1.6,1.6h2.3 c-1.4,8.9-4.6,18.7-9.3,20.4c-2,0.7-3,3-2.3,5c0.6,1.6,2.1,2.5,3.7,2.5c0.4,0,0.9-0.1,1.3-0.2c3.6-1.3,6.4-4.4,8.5-8.1v2.7 c0,2.1,1.7,3.9,3.9,3.9c1.3,0,2.4-0.6,3.1-1.6c1.6,2.7,3.6,5.1,5.9,7c0.7,0.6,1.6,0.9,2.5,0.9c1.1,0,2.2-0.5,3-1.4 c1.4-1.7,1.1-4.1-0.5-5.5c-5.2-4.2-8.4-13.5-10-20.2v-5.4h4.2c0.9,0,1.6-0.7,1.6-1.6V97.3c0-0.9-0.7-1.6-1.6-1.6h-4.2V45.3l15.1-4 c0.4-0.1,0.7-0.2,1-0.4C254.3,38.8,254.2,35.9,254.1,34.7z M207.8,87.6c0,13.7-9.3,22.7-30.2,29.3c-1.7,0.4-23.6,5.5-50,5.5 c-27.3,0-46.7-5.4-46.9-5.5c-20.9-6.1-30.2-15.1-30.2-29.3V53.2l71.5,18.1c0.7,0.2,1.3,0.4,1.8,0.5c2.1,0.6,3.3,0.9,4.6,0.9 c1.2,0,2.5-0.3,4.8-0.8c0.7-0.2,1.6-0.4,2.7-0.6c0.1,0,0.1,0,0.2,0l71.7-18.9V87.6z M134.2,63.8c-1.1,0.2-1.9,0.4-2.7,0.6 c-3.1,0.7-3.1,0.7-5.5,0c-0.5-0.2-1.2-0.3-1.9-0.5c0,0-0.1,0-0.1,0L9.6,34.8c1.1-0.6,2.6-1.2,4.7-1.8l107-24.7 c4.8-0.9,8.7-0.5,12.6,0l105.3,24.4c2.3,0.6,4,1.3,5.2,1.9L134.2,63.8z" /></g></svg>
